<svg xmlns="http://www.w3.org/2000/svg" viewBox="0 0 900 600" width="900" height="600" font-family="Arial, Helvetica, sans-serif">
  <rect width="900" height="600" fill="#FFFFFF"/>
  <defs>
    <marker id="arrow-default" markerWidth="10" markerHeight="10" refX="8" refY="4" orient="auto" markerUnits="strokeWidth">
      <polygon points="0 0, 8 4, 0 8" fill="#555555"/>
    </marker>
    <marker id="arrow-c0" markerWidth="10" markerHeight="10" refX="8" refY="4" orient="auto" markerUnits="strokeWidth">
      <polygon points="0 0, 8 4, 0 8" fill="#2563EB"/>
    </marker>
    <marker id="arrow-c1" markerWidth="10" markerHeight="10" refX="8" refY="4" orient="auto" markerUnits="strokeWidth">
      <polygon points="0 0, 8 4, 0 8" fill="#10B981"/>
    </marker>
    <marker id="arrow-c2" markerWidth="10" markerHeight="10" refX="8" refY="4" orient="auto" markerUnits="strokeWidth">
      <polygon points="0 0, 8 4, 0 8" fill="#7C3AED"/>
    </marker>
    <marker id="arrow-c3" markerWidth="10" markerHeight="10" refX="8" refY="4" orient="auto" markerUnits="strokeWidth">
      <polygon points="0 0, 8 4, 0 8" fill="#EA580C"/>
    </marker>
    <marker id="arrow-c4" markerWidth="10" markerHeight="10" refX="8" refY="4" orient="auto" markerUnits="strokeWidth">
      <polygon points="0 0, 8 4, 0 8" fill="#C62828"/>
    </marker>
    <marker id="arrow-c5" markerWidth="10" markerHeight="10" refX="8" refY="4" orient="auto" markerUnits="strokeWidth">
      <polygon points="0 0, 8 4, 0 8" fill="#0D47A1"/>
    </marker>
    <marker id="arrow-c6" markerWidth="10" markerHeight="10" refX="8" refY="4" orient="auto" markerUnits="strokeWidth">
      <polygon points="0 0, 8 4, 0 8" fill="#1B5E20"/>
    </marker>
    <marker id="arrow-c7" markerWidth="10" markerHeight="10" refX="8" refY="4" orient="auto" markerUnits="strokeWidth">
      <polygon points="0 0, 8 4, 0 8" fill="#4A148C"/>
    </marker>
    <marker id="arrow-c8" markerWidth="10" markerHeight="10" refX="8" refY="4" orient="auto" markerUnits="strokeWidth">
      <polygon points="0 0, 8 4, 0 8" fill="#BF360C"/>
    </marker>
    <marker id="arrow-c9" markerWidth="10" markerHeight="10" refX="8" refY="4" orient="auto" markerUnits="strokeWidth">
      <polygon points="0 0, 8 4, 0 8" fill="#37474F"/>
    </marker>
  </defs>
  <path d="M 100.0,130.0 L 135.0,130.0" stroke="#999999" stroke-width="2" fill="none" marker-end="url(#arrow-default)"/>
  <path d="M 225.0,130.0 L 270.0,130.0" stroke="#999999" stroke-width="2" fill="none" marker-end="url(#arrow-default)"/>
  <path d="M 350.0,130.0 L 385.0,130.0" stroke="#999999" stroke-width="2" fill="none" marker-end="url(#arrow-default)"/>
  <path d="M 475.0,130.0 L 525.0,130.0" stroke="#999999" stroke-width="2" fill="none" marker-end="url(#arrow-default)"/>
  <path d="M 595.0,130.0 L 625.0,130.0" stroke="#999999" stroke-width="2" fill="none" marker-end="url(#arrow-default)"/>
  <path d="M 715.0,130.0 L 760.0,130.0" stroke="#999999" stroke-width="2" fill="none" marker-end="url(#arrow-default)"/>
  <path d="M 100.0,250.0 L 135.0,250.0" stroke="#999999" stroke-width="2" fill="none" marker-end="url(#arrow-default)"/>
  <path d="M 225.0,250.0 L 270.0,250.0" stroke="#999999" stroke-width="2" fill="none" marker-end="url(#arrow-default)"/>
  <path d="M 350.0,250.0 L 385.0,250.0" stroke="#999999" stroke-width="2" fill="none" marker-end="url(#arrow-default)"/>
  <path d="M 475.0,250.0 L 525.0,250.0" stroke="#999999" stroke-width="2" fill="none" marker-end="url(#arrow-default)"/>
  <path d="M 595.0,250.0 L 625.0,250.0" stroke="#999999" stroke-width="2" fill="none" marker-end="url(#arrow-default)"/>
  <path d="M 715.0,250.0 L 760.0,250.0" stroke="#999999" stroke-width="2" fill="none" marker-end="url(#arrow-default)"/>
  <path d="M 100.0,370.0 L 135.0,370.0" stroke="#999999" stroke-width="2" fill="none" marker-end="url(#arrow-default)"/>
  <path d="M 225.0,370.0 L 270.0,370.0" stroke="#999999" stroke-width="2" fill="none" marker-end="url(#arrow-default)"/>
  <path d="M 350.0,370.0 L 385.0,370.0" stroke="#999999" stroke-width="2" fill="none" marker-end="url(#arrow-default)"/>
  <path d="M 475.0,370.0 L 525.0,370.0" stroke="#999999" stroke-width="2" fill="none" marker-end="url(#arrow-default)"/>
  <path d="M 595.0,370.0 L 625.0,370.0" stroke="#999999" stroke-width="2" fill="none" marker-end="url(#arrow-default)"/>
  <path d="M 715.0,370.0 L 760.0,370.0" stroke="#999999" stroke-width="2" fill="none" marker-end="url(#arrow-default)"/>
  <path d="M 760.0,136.5 Q 425.2,160.4 100.0,243.5" stroke="#CC8800" stroke-width="2" fill="none" marker-end="url(#arrow-default)" stroke-dasharray="8,4"/>
  <rect x="387.3" y="157.2" width="80.6" height="16" fill="#FFFFFF" rx="3" opacity="0.85"/>
  <text x="427.6" y="169.2" font-size="11" fill="#777777" text-anchor="middle">materialize</text>
  <path d="M 760.0,256.5 Q 425.2,280.4 100.0,363.5" stroke="#CC8800" stroke-width="2" fill="none" marker-end="url(#arrow-default)" stroke-dasharray="8,4"/>
  <rect x="387.3" y="277.2" width="80.6" height="16" fill="#FFFFFF" rx="3" opacity="0.85"/>
  <text x="427.6" y="289.2" font-size="11" fill="#777777" text-anchor="middle">materialize</text>
  <rect x="50.0" y="20.0" width="800.0" height="30.0" fill="#1E3A5F" stroke="#1E3A5F" stroke-width="2" rx="0"/>
  <text x="450.0" y="41.3" font-size="18" fill="#FFFFFF" text-anchor="middle" font-weight="bold">Legacy AccessPattern: Per-&lt;-&gt; Root-Centric Communication</text>
  <rect x="50.0" y="52.5" width="800.0" height="25.0" fill="#F8F9FA" stroke="#F8F9FA" stroke-width="2" rx="0"/>
  <text x="450.0" y="69.2" font-size="12" fill="#666666" text-anchor="middle" font-weight="bold">~3 MPI collective calls per &lt;-&gt; expression, 3 expressions = 9+ calls total</text>
  <rect x="20.0" y="107.5" width="80.0" height="45.0" fill="#FFE4E1" stroke="#CC0000" stroke-width="2" rx="8"/>
  <text x="60.0" y="126.9" font-size="14" fill="#333333" text-anchor="middle" font-weight="bold">Rank0:</text>
  <text x="60.0" y="142.9" font-size="14" fill="#333333" text-anchor="middle" font-weight="bold">global data</text>
  <rect x="135.0" y="107.5" width="90.0" height="45.0" fill="#FFD700" stroke="#CC8800" stroke-width="2" rx="8"/>
  <text x="180.0" y="126.9" font-size="14" fill="#333333" text-anchor="middle" font-weight="bold">MPI_Gatherv</text>
  <text x="180.0" y="142.9" font-size="14" fill="#333333" text-anchor="middle" font-weight="bold">gather all indices</text>
  <rect x="270.0" y="107.5" width="80.0" height="45.0" fill="#FFE4E1" stroke="#CC0000" stroke-width="2" rx="8"/>
  <text x="310.0" y="126.9" font-size="14" fill="#333333" text-anchor="middle" font-weight="bold">Rank0</text>
  <text x="310.0" y="142.9" font-size="14" fill="#333333" text-anchor="middle" font-weight="bold">computes pack plan</text>
  <rect x="385.0" y="107.5" width="90.0" height="45.0" fill="#FFD700" stroke="#CC8800" stroke-width="2" rx="8"/>
  <text x="430.0" y="126.9" font-size="14" fill="#333333" text-anchor="middle" font-weight="bold">MPI_Scatterv</text>
  <text x="430.0" y="142.9" font-size="14" fill="#333333" text-anchor="middle" font-weight="bold">scatter data</text>
  <rect x="525.0" y="107.5" width="70.0" height="45.0" fill="#87CEEB" stroke="#4682B4" stroke-width="2" rx="8"/>
  <text x="560.0" y="126.9" font-size="14" fill="#333333" text-anchor="middle" font-weight="bold">Kernel</text>
  <text x="560.0" y="142.9" font-size="14" fill="#333333" text-anchor="middle" font-weight="bold">vadd</text>
  <rect x="625.0" y="107.5" width="90.0" height="45.0" fill="#FFD700" stroke="#CC8800" stroke-width="2" rx="8"/>
  <text x="670.0" y="126.9" font-size="14" fill="#333333" text-anchor="middle" font-weight="bold">MPI_Gatherv</text>
  <text x="670.0" y="142.9" font-size="14" fill="#333333" text-anchor="middle" font-weight="bold">gather output</text>
  <rect x="760.0" y="107.5" width="80.0" height="45.0" fill="#FFE4E1" stroke="#CC0000" stroke-width="2" rx="8"/>
  <text x="800.0" y="126.9" font-size="14" fill="#333333" text-anchor="middle" font-weight="bold">Write to</text>
  <text x="800.0" y="142.9" font-size="14" fill="#333333" text-anchor="middle" font-weight="bold">root tensor</text>
  <rect x="20.0" y="90.0" width="80.0" height="20.0" fill="#E8F4F8" stroke="#4682B4" stroke-width="2" rx="0"/>
  <text x="60.0" y="103.8" font-size="11" fill="#4682B4" text-anchor="middle" font-weight="bold">VADD_vadd</text>
  <rect x="20.0" y="227.5" width="80.0" height="45.0" fill="#FFFACD" stroke="#CC8800" stroke-width="2" rx="8"/>
  <text x="60.0" y="246.9" font-size="14" fill="#333333" text-anchor="middle" font-weight="bold">tmp_tensor</text>
  <text x="60.0" y="262.9" font-size="14" fill="#333333" text-anchor="middle" font-weight="bold">(root)</text>
  <rect x="135.0" y="227.5" width="90.0" height="45.0" fill="#FFD700" stroke="#CC8800" stroke-width="2" rx="8"/>
  <text x="180.0" y="254.9" font-size="14" fill="#333333" text-anchor="middle" font-weight="bold">MPI_Gatherv</text>
  <rect x="270.0" y="227.5" width="80.0" height="45.0" fill="#FFE4E1" stroke="#CC0000" stroke-width="2" rx="8"/>
  <text x="310.0" y="246.9" font-size="14" fill="#333333" text-anchor="middle" font-weight="bold">Rank0</text>
  <text x="310.0" y="262.9" font-size="14" fill="#333333" text-anchor="middle" font-weight="bold">pack</text>
  <rect x="385.0" y="227.5" width="90.0" height="45.0" fill="#FFD700" stroke="#CC8800" stroke-width="2" rx="8"/>
  <text x="430.0" y="254.9" font-size="14" fill="#333333" text-anchor="middle" font-weight="bold">MPI_Scatterv</text>
  <rect x="525.0" y="227.5" width="70.0" height="45.0" fill="#87CEEB" stroke="#4682B4" stroke-width="2" rx="8"/>
  <text x="560.0" y="246.9" font-size="14" fill="#333333" text-anchor="middle" font-weight="bold">Kernel</text>
  <text x="560.0" y="262.9" font-size="14" fill="#333333" text-anchor="middle" font-weight="bold">vshift</text>
  <rect x="625.0" y="227.5" width="90.0" height="45.0" fill="#FFD700" stroke="#CC8800" stroke-width="2" rx="8"/>
  <text x="670.0" y="254.9" font-size="14" fill="#333333" text-anchor="middle" font-weight="bold">MPI_Gatherv</text>
  <rect x="760.0" y="227.5" width="80.0" height="45.0" fill="#FFFACD" stroke="#CC8800" stroke-width="2" rx="8"/>
  <text x="800.0" y="246.9" font-size="14" fill="#333333" text-anchor="middle" font-weight="bold">shifted_tensor</text>
  <text x="800.0" y="262.9" font-size="14" fill="#333333" text-anchor="middle" font-weight="bold">(root)</text>
  <rect x="20.0" y="220.0" width="80.0" height="20.0" fill="#E8F4F8" stroke="#4682B4" stroke-width="2" rx="0"/>
  <text x="60.0" y="233.8" font-size="11" fill="#4682B4" text-anchor="middle" font-weight="bold">VSHIFT_vshift</text>
  <rect x="20.0" y="347.5" width="80.0" height="45.0" fill="#FFFACD" stroke="#CC8800" stroke-width="2" rx="8"/>
  <text x="60.0" y="366.9" font-size="14" fill="#333333" text-anchor="middle" font-weight="bold">shifted_tensor</text>
  <text x="60.0" y="382.9" font-size="14" fill="#333333" text-anchor="middle" font-weight="bold">(root)</text>
  <rect x="135.0" y="347.5" width="90.0" height="45.0" fill="#FFD700" stroke="#CC8800" stroke-width="2" rx="8"/>
  <text x="180.0" y="374.9" font-size="14" fill="#333333" text-anchor="middle" font-weight="bold">MPI_Gatherv</text>
  <rect x="270.0" y="347.5" width="80.0" height="45.0" fill="#FFE4E1" stroke="#CC0000" stroke-width="2" rx="8"/>
  <text x="310.0" y="366.9" font-size="14" fill="#333333" text-anchor="middle" font-weight="bold">Rank0</text>
  <text x="310.0" y="382.9" font-size="14" fill="#333333" text-anchor="middle" font-weight="bold">pack</text>
  <rect x="385.0" y="347.5" width="90.0" height="45.0" fill="#FFD700" stroke="#CC8800" stroke-width="2" rx="8"/>
  <text x="430.0" y="374.9" font-size="14" fill="#333333" text-anchor="middle" font-weight="bold">MPI_Scatterv</text>
  <rect x="525.0" y="347.5" width="70.0" height="45.0" fill="#87CEEB" stroke="#4682B4" stroke-width="2" rx="8"/>
  <text x="560.0" y="366.9" font-size="14" fill="#333333" text-anchor="middle" font-weight="bold">Kernel</text>
  <text x="560.0" y="382.9" font-size="14" fill="#333333" text-anchor="middle" font-weight="bold">vadd</text>
  <rect x="625.0" y="347.5" width="90.0" height="45.0" fill="#FFD700" stroke="#CC8800" stroke-width="2" rx="8"/>
  <text x="670.0" y="366.9" font-size="14" fill="#333333" text-anchor="middle" font-weight="bold">MPI_Gatherv</text>
  <text x="670.0" y="382.9" font-size="14" fill="#333333" text-anchor="middle" font-weight="bold">final output</text>
  <rect x="760.0" y="347.5" width="80.0" height="45.0" fill="#90EE90" stroke="#228B22" stroke-width="2" rx="8"/>
  <text x="800.0" y="366.9" font-size="14" fill="#333333" text-anchor="middle" font-weight="bold">out_tensor</text>
  <text x="800.0" y="382.9" font-size="14" fill="#333333" text-anchor="middle" font-weight="bold">(root)</text>
  <rect x="20.0" y="340.0" width="80.0" height="20.0" fill="#E8F4F8" stroke="#4682B4" stroke-width="2" rx="0"/>
  <text x="60.0" y="353.9" font-size="11" fill="#4682B4" text-anchor="middle" font-weight="bold">VADD_vadd</text>
  <rect x="150.0" y="447.5" width="100.0" height="25.0" fill="#FFD700" stroke="#CC8800" stroke-width="2" rx="8"/>
  <text x="200.0" y="464.9" font-size="14" fill="#333333" text-anchor="middle" font-weight="bold">MPI collective</text>
  <rect x="300.0" y="447.5" width="100.0" height="25.0" fill="#87CEEB" stroke="#4682B4" stroke-width="2" rx="8"/>
  <text x="350.0" y="464.9" font-size="14" fill="#333333" text-anchor="middle" font-weight="bold">SYCL Kernel</text>
  <rect x="450.0" y="447.5" width="100.0" height="25.0" fill="#FFE4E1" stroke="#CC0000" stroke-width="2" rx="8"/>
  <text x="500.0" y="464.9" font-size="14" fill="#333333" text-anchor="middle" font-weight="bold">Rank 0 ops</text>
  <rect x="635.0" y="447.5" width="130.0" height="25.0" fill="#FFFACD" stroke="#CC8800" stroke-width="2" rx="8"/>
  <text x="700.0" y="464.9" font-size="14" fill="#333333" text-anchor="middle" font-weight="bold">Intermediate tensor</text>
  <rect x="350.0" y="505.0" width="200.0" height="30.0" fill="#FF6B6B" stroke="#CC0000" stroke-width="2" rx="0"/>
  <text x="450.0" y="524.9" font-size="14" fill="#FFFFFF" text-anchor="middle" font-weight="bold">Rank 0 Bottleneck</text>
</svg>
