<svg xmlns="http://www.w3.org/2000/svg" viewBox="0 0 900 500" width="900" height="500" font-family="Arial, Helvetica, sans-serif">
  <rect width="900" height="500" fill="#FFFFFF"/>
  <defs>
    <marker id="arrow-default" markerWidth="10" markerHeight="10" refX="8" refY="4" orient="auto" markerUnits="strokeWidth">
      <polygon points="0 0, 8 4, 0 8" fill="#555555"/>
    </marker>
    <marker id="arrow-c0" markerWidth="10" markerHeight="10" refX="8" refY="4" orient="auto" markerUnits="strokeWidth">
      <polygon points="0 0, 8 4, 0 8" fill="#2563EB"/>
    </marker>
    <marker id="arrow-c1" markerWidth="10" markerHeight="10" refX="8" refY="4" orient="auto" markerUnits="strokeWidth">
      <polygon points="0 0, 8 4, 0 8" fill="#10B981"/>
    </marker>
    <marker id="arrow-c2" markerWidth="10" markerHeight="10" refX="8" refY="4" orient="auto" markerUnits="strokeWidth">
      <polygon points="0 0, 8 4, 0 8" fill="#7C3AED"/>
    </marker>
    <marker id="arrow-c3" markerWidth="10" markerHeight="10" refX="8" refY="4" orient="auto" markerUnits="strokeWidth">
      <polygon points="0 0, 8 4, 0 8" fill="#EA580C"/>
    </marker>
    <marker id="arrow-c4" markerWidth="10" markerHeight="10" refX="8" refY="4" orient="auto" markerUnits="strokeWidth">
      <polygon points="0 0, 8 4, 0 8" fill="#C62828"/>
    </marker>
    <marker id="arrow-c5" markerWidth="10" markerHeight="10" refX="8" refY="4" orient="auto" markerUnits="strokeWidth">
      <polygon points="0 0, 8 4, 0 8" fill="#0D47A1"/>
    </marker>
    <marker id="arrow-c6" markerWidth="10" markerHeight="10" refX="8" refY="4" orient="auto" markerUnits="strokeWidth">
      <polygon points="0 0, 8 4, 0 8" fill="#1B5E20"/>
    </marker>
    <marker id="arrow-c7" markerWidth="10" markerHeight="10" refX="8" refY="4" orient="auto" markerUnits="strokeWidth">
      <polygon points="0 0, 8 4, 0 8" fill="#4A148C"/>
    </marker>
    <marker id="arrow-c8" markerWidth="10" markerHeight="10" refX="8" refY="4" orient="auto" markerUnits="strokeWidth">
      <polygon points="0 0, 8 4, 0 8" fill="#BF360C"/>
    </marker>
    <marker id="arrow-c9" markerWidth="10" markerHeight="10" refX="8" refY="4" orient="auto" markerUnits="strokeWidth">
      <polygon points="0 0, 8 4, 0 8" fill="#37474F"/>
    </marker>
  </defs>
  <path d="M 120.0,180.0 L 230.0,180.0" stroke="#4169E1" stroke-width="2" fill="none" marker-end="url(#arrow-default)"/>
  <path d="M 220.0,180.0 L 230.0,180.0" stroke="#4169E1" stroke-width="2" fill="none" marker-end="url(#arrow-default)"/>
  <path d="M 245.0,205.0 L 182.0,250.0" stroke="#4169E1" stroke-width="2" fill="none" marker-end="url(#arrow-default)"/>
  <path d="M 286.5,205.0 L 306.1,280.0" stroke="#FFD700" stroke-width="2" fill="none" marker-end="url(#arrow-default)" stroke-dasharray="8,4"/>
  <path d="M 470.0,176.2 L 590.0,164.8" stroke="#4169E1" stroke-width="2" fill="none" marker-end="url(#arrow-default)"/>
  <path d="M 570.0,187.3 L 590.0,190.9" stroke="#32CD32" stroke-width="2" fill="none" marker-end="url(#arrow-default)"/>
  <path d="M 690.0,168.3 L 715.0,172.5" stroke="#999999" stroke-width="2" fill="none" marker-end="url(#arrow-default)" stroke-dasharray="8,4"/>
  <path d="M 690.0,191.7 L 715.0,187.5" stroke="#999999" stroke-width="2" fill="none" marker-end="url(#arrow-default)" stroke-dasharray="8,4"/>
  <path d="M 850.0,166.2 L 890.0,163.1" stroke="#4169E1" stroke-width="2" fill="none" marker-end="url(#arrow-default)"/>
  <path d="M 850.0,181.5 L 890.0,190.8" stroke="#87CEEB" stroke-width="2" fill="none" marker-end="url(#arrow-default)"/>
  <path d="M 912.5,177.5 L 847.5,242.5" stroke="#999999" stroke-width="2" fill="none" marker-end="url(#arrow-default)" stroke-dasharray="8,4"/>
  <rect x="50.0" y="20.0" width="800.0" height="30.0" fill="#1E3A5F" stroke="#1E3A5F" stroke-width="2" rx="0"/>
  <text x="450.0" y="41.3" font-size="18" fill="#FFFFFF" text-anchor="middle" font-weight="bold">Shell dataList → MPI Partition Semantics</text>
  <rect x="50.0" y="52.5" width="800.0" height="25.0" fill="#F8F9FA" stroke="#F8F9FA" stroke-width="2" rx="0"/>
  <text x="450.0" y="69.2" font-size="12" fill="#666666" text-anchor="middle" font-weight="bold">index=partition, {}=broadcast, split=halo/fallback</text>
  <rect x="40.0" y="95.0" width="280.0" height="30.0" fill="#E8F4F8" stroke="#4682B4" stroke-width="2" rx="0"/>
  <text x="180.0" y="114.5" font-size="13" fill="#4682B4" text-anchor="middle" font-weight="bold">dataList{a[i], b[i], out[i]}</text>
  <rect x="40.0" y="155.0" width="80.0" height="50.0" fill="#B8D4E8" stroke="#4682B4" stroke-width="2" rx="8"/>
  <text x="80.0" y="176.9" font-size="14" fill="#333333" text-anchor="middle" font-weight="bold">a[i]</text>
  <text x="80.0" y="192.9" font-size="14" fill="#333333" text-anchor="middle" font-weight="bold">1D vector</text>
  <rect x="140.0" y="155.0" width="80.0" height="50.0" fill="#B8D4E8" stroke="#4682B4" stroke-width="2" rx="8"/>
  <text x="180.0" y="176.9" font-size="14" fill="#333333" text-anchor="middle" font-weight="bold">b[i]</text>
  <text x="180.0" y="192.9" font-size="14" fill="#333333" text-anchor="middle" font-weight="bold">1D vector</text>
  <rect x="230.0" y="155.0" width="100.0" height="50.0" fill="#4169E1" stroke="#4169E1" stroke-width="2" rx="0"/>
  <text x="280.0" y="177.2" font-size="12" fill="#FFFFFF" text-anchor="middle" font-weight="bold">index i</text>
  <text x="280.0" y="191.2" font-size="12" fill="#FFFFFF" text-anchor="middle" font-weight="bold">→ partition</text>
  <rect x="70.0" y="250.0" width="140.0" height="60.0" fill="#E8F8E8" stroke="#228B22" stroke-width="2" rx="8"/>
  <text x="140.0" y="268.9" font-size="14" fill="#333333" text-anchor="middle" font-weight="bold">Rank 0: a[0-2]</text>
  <text x="140.0" y="284.9" font-size="14" fill="#333333" text-anchor="middle" font-weight="bold">Rank 1: a[3-5]</text>
  <text x="140.0" y="300.9" font-size="14" fill="#333333" text-anchor="middle" font-weight="bold">Rank 2: a[6-7]</text>
  <rect x="260.0" y="280.0" width="100.0" height="30.0" fill="#FFD700" stroke="#CC8800" stroke-width="2" rx="8"/>
  <text x="310.0" y="298.9" font-size="11" fill="#333333" text-anchor="middle" font-weight="bold">MPI_Scatterv</text>
  <rect x="380.0" y="95.0" width="320.0" height="30.0" fill="#E8F8E8" stroke="#228B22" stroke-width="2" rx="0"/>
  <text x="540.0" y="114.5" font-size="13" fill="#228B22" text-anchor="middle" font-weight="bold">dataList{in[i], bias[{}], out[i]}</text>
  <rect x="390.0" y="155.0" width="80.0" height="50.0" fill="#B8D4E8" stroke="#4682B4" stroke-width="2" rx="8"/>
  <text x="430.0" y="176.9" font-size="14" fill="#333333" text-anchor="middle" font-weight="bold">in[i]</text>
  <text x="430.0" y="192.9" font-size="14" fill="#333333" text-anchor="middle" font-weight="bold">1D vector</text>
  <rect x="490.0" y="155.0" width="80.0" height="50.0" fill="#98FB98" stroke="#228B22" stroke-width="2" rx="8"/>
  <text x="530.0" y="176.9" font-size="14" fill="#333333" text-anchor="middle" font-weight="bold">bias[{}]</text>
  <text x="530.0" y="192.9" font-size="14" fill="#333333" text-anchor="middle" font-weight="bold">scalar</text>
  <rect x="590.0" y="145.0" width="100.0" height="30.0" fill="#4169E1" stroke="#4169E1" stroke-width="2" rx="0"/>
  <text x="640.0" y="163.8" font-size="11" fill="#FFFFFF" text-anchor="middle" font-weight="bold">index → partition</text>
  <rect x="590.0" y="185.0" width="100.0" height="30.0" fill="#32CD32" stroke="#228B22" stroke-width="2" rx="0"/>
  <text x="640.0" y="203.8" font-size="11" fill="#FFFFFF" text-anchor="middle" font-weight="bold">void → broadcast</text>
  <rect x="715.0" y="155.0" width="90.0" height="50.0" fill="#FFD700" stroke="#CC8800" stroke-width="2" rx="8"/>
  <text x="760.0" y="184.9" font-size="14" fill="#333333" text-anchor="middle" font-weight="bold">MPI_Bcast</text>
  <rect x="470.0" y="255.0" width="140.0" height="50.0" fill="#E8F8E8" stroke="#228B22" stroke-width="2" rx="8"/>
  <text x="540.0" y="276.9" font-size="14" fill="#333333" text-anchor="middle" font-weight="bold">All ranks get</text>
  <text x="540.0" y="292.9" font-size="14" fill="#333333" text-anchor="middle" font-weight="bold">same bias value</text>
  <rect x="670.0" y="95.0" width="300.0" height="30.0" fill="#FFF0F5" stroke="#DB7093" stroke-width="2" rx="0"/>
  <text x="820.0" y="113.8" font-size="11" fill="#DB7093" text-anchor="middle" font-weight="bold">dataList{image[idx1][idx2], out[idx1][idx2]}</text>
  <rect x="750.0" y="145.0" width="100.0" height="50.0" fill="#B8D4E8" stroke="#4682B4" stroke-width="2" rx="8"/>
  <text x="800.0" y="166.9" font-size="14" fill="#333333" text-anchor="middle" font-weight="bold">2D Matrix</text>
  <text x="800.0" y="182.9" font-size="14" fill="#333333" text-anchor="middle" font-weight="bold">image[idx1][idx2]</text>
  <rect x="890.0" y="142.5" width="80.0" height="35.0" fill="#4169E1" stroke="#4169E1" stroke-width="2" rx="0"/>
  <text x="930.0" y="157.5" font-size="10" fill="#FFFFFF" text-anchor="middle" font-weight="bold">idx1 → row</text>
  <text x="930.0" y="169.5" font-size="10" fill="#FFFFFF" text-anchor="middle" font-weight="bold">partition</text>
  <rect x="890.0" y="182.5" width="80.0" height="35.0" fill="#87CEEB" stroke="#4682B4" stroke-width="2" rx="0"/>
  <text x="930.0" y="197.5" font-size="10" fill="#4682B4" text-anchor="middle" font-weight="bold">idx2 → local</text>
  <text x="930.0" y="209.5" font-size="10" fill="#4682B4" text-anchor="middle" font-weight="bold">column</text>
  <rect x="720.0" y="242.5" width="200.0" height="55.0" fill="#E8F8E8" stroke="#228B22" stroke-width="2" rx="8"/>
  <text x="820.0" y="258.9" font-size="14" fill="#333333" text-anchor="middle" font-weight="bold">Rank 0: rows 0-1</text>
  <text x="820.0" y="274.9" font-size="14" fill="#333333" text-anchor="middle" font-weight="bold">Rank 1: rows 2-3</text>
  <text x="820.0" y="290.9" font-size="14" fill="#333333" text-anchor="middle" font-weight="bold">Rank 2: rows 4-5</text>
  <rect x="60.0" y="387.5" width="120.0" height="25.0" fill="#B8D4E8" stroke="#4682B4" stroke-width="2" rx="8"/>
  <text x="120.0" y="403.9" font-size="11" fill="#333333" text-anchor="middle" font-weight="bold">index annotation</text>
  <rect x="220.0" y="387.5" width="120.0" height="25.0" fill="#98FB98" stroke="#228B22" stroke-width="2" rx="8"/>
  <text x="280.0" y="403.9" font-size="11" fill="#333333" text-anchor="middle" font-weight="bold">{} void annotation</text>
  <rect x="380.0" y="387.5" width="120.0" height="25.0" fill="#FFB6C1" stroke="#DB7093" stroke-width="2" rx="8"/>
  <text x="440.0" y="403.9" font-size="11" fill="#333333" text-anchor="middle" font-weight="bold">split annotation</text>
  <rect x="490.0" y="387.5" width="180.0" height="25.0" fill="#FFF0F5" stroke="#FFB6C1" stroke-width="2" rx="0"/>
  <text x="580.0" y="403.9" font-size="11" fill="#DB7093" text-anchor="middle" font-weight="bold">→ halo exchange / fallback</text>
  <rect x="70.0" y="437.5" width="100.0" height="25.0" fill="#FFD700" stroke="#CC8800" stroke-width="2" rx="8"/>
  <text x="120.0" y="453.9" font-size="11" fill="#333333" text-anchor="middle" font-weight="bold">MPI_Scatterv</text>
  <rect x="230.0" y="437.5" width="100.0" height="25.0" fill="#FFD700" stroke="#CC8800" stroke-width="2" rx="8"/>
  <text x="280.0" y="453.9" font-size="11" fill="#333333" text-anchor="middle" font-weight="bold">MPI_Bcast</text>
</svg>
